<svg width="38" height="38" viewBox="0 0 38 38" fill="none" xmlns="http://www.w3.org/2000/svg">
<path fill-rule="evenodd" clip-rule="evenodd" d="M0.666422 3.73009C0.666422 2.91764 0.989165 2.13847 1.56365 1.56398C2.13814 0.989495 2.91731 0.666752 3.72976 0.666752H34.2664C34.669 0.666095 35.0678 0.744857 35.44 0.89853C35.8121 1.0522 36.1503 1.27777 36.4352 1.56231C36.72 1.84686 36.946 2.18479 37.1 2.55677C37.2541 2.92875 37.3333 3.32746 37.3331 3.73009V34.2668C37.3335 34.6695 37.2546 35.0683 37.1007 35.4405C36.9468 35.8126 36.7211 36.1508 36.4364 36.4356C36.1518 36.7204 35.8137 36.9463 35.4417 37.1004C35.0696 37.2545 34.6708 37.3336 34.2681 37.3334H3.72976C3.32733 37.3334 2.92885 37.2541 2.55708 37.1001C2.18531 36.946 1.84754 36.7202 1.56306 36.4356C1.27858 36.151 1.05298 35.8131 0.899126 35.4412C0.745277 35.0694 0.666203 34.6708 0.666422 34.2684V3.73009ZM15.1798 14.6468H20.1448V17.1401C20.8614 15.7068 22.6948 14.4168 25.4498 14.4168C30.7314 14.4168 31.9831 17.2718 31.9831 22.5101V32.2134H26.6381V23.7034C26.6381 20.7201 25.9214 19.0368 24.1014 19.0368C21.5764 19.0368 20.5264 20.8518 20.5264 23.7034V32.2134H15.1798V14.6468ZM6.01309 31.9851H11.3598V14.4168H6.01309V31.9834V31.9851ZM12.1248 8.68675C12.1348 9.14454 12.0534 9.59973 11.8852 10.0256C11.7169 10.4515 11.4653 10.8395 11.1451 11.1668C10.8249 11.4941 10.4426 11.7542 10.0205 11.9318C9.59844 12.1093 9.14515 12.2008 8.68725 12.2008C8.22936 12.2008 7.77607 12.1093 7.354 11.9318C6.93192 11.7542 6.54957 11.4941 6.22937 11.1668C5.90917 10.8395 5.65758 10.4515 5.48936 10.0256C5.32113 9.59973 5.23967 9.14454 5.24975 8.68675C5.26954 7.78818 5.6404 6.93307 6.2829 6.30456C6.9254 5.67605 7.78846 5.32412 8.68725 5.32412C9.58605 5.32412 10.4491 5.67605 11.0916 6.30456C11.7341 6.93307 12.105 7.78818 12.1248 8.68675Z" fill="#0A66C2"/>
</svg>
